<svg xmlns="http://www.w3.org/2000/svg"
     width="256"
     height="256"
     viewBox="0 0 256 256"
     fill="none">

  <style>
    .outline {
      fill: none;
      stroke: #1F2937;
      stroke-width: 8;
      stroke-linecap: round;
      stroke-linejoin: round;
    }
  </style>

  <!-- Repository hexagon -->
  <path class="outline"
        d="M128 24
           L196 64
           V144
           L128 184
           L60 144
           V64
           Z"/>

  <!-- Document with integrated folded corner -->
  <path class="outline"
        d="M88 56
           H148
           L168 76
           V152
           H88
           Z
           M148 56
           V76
           H168"/>

  <!-- Handwritten text -->
  <path class="outline"
        d="M102 96
           C110 88 118 104 128 96
           C138 88 146 104 154 96"/>

  <path class="outline"
        d="M104 114
           C114 108 122 120 132 114
           C140 110 148 118 154 114"/>

  <!-- Repository tray -->
  <path class="outline"
        d="M72 176
           H184
           L196 208
           H60
           Z"/>

  <path class="outline"
        d="M104 192
           H152"/>

</svg>
